<?xml version="1.0" standalone="no"?>
<!DOCTYPE svg PUBLIC "-//W3C//DTD SVG 20010904//EN"
 "http://www.w3.org/TR/2001/REC-SVG-20010904/DTD/svg10.dtd">
<svg version="1.0" xmlns="http://www.w3.org/2000/svg"
 width="24" height="24" viewBox="0 0 500.000000 500.000000"
 preserveAspectRatio="xMidYMid meet">

<g transform="translate(0.000000,500.000000) scale(0.100000,-0.100000)"
fill="#5a6168" stroke="none">
<path d="M1940 4361 c-14 -5 -41 -16 -60 -26 -39 -20 -1112 -1092 -1142 -1140
-22 -36 -23 -96 -4 -133 26 -49 1117 -1128 1166 -1154 44 -23 51 -23 384 -26
338 -3 339 -3 362 19 15 14 24 34 24 53 0 28 -47 78 -409 440 -226 226 -408
413 -405 418 3 4 364 8 802 8 877 0 869 0 958 -60 54 -38 90 -84 115 -150 17
-46 19 -79 19 -420 0 -347 -1 -373 -20 -424 -27 -72 -88 -139 -158 -173 l-57
-28 -300 -5 c-294 -5 -301 -5 -333 -28 -58 -42 -62 -59 -62 -285 0 -195 1
-205 23 -237 12 -18 38 -42 57 -52 33 -18 55 -19 365 -15 326 3 331 4 420 31
330 100 554 325 656 656 22 72 23 90 27 519 4 488 1 521 -58 684 -72 195 -238
385 -431 491 -93 51 -230 93 -341 105 -61 7 -397 11 -895 11 l-798 0 413 413
c373 373 412 415 412 445 0 19 -8 40 -20 52 -19 19 -33 20 -352 19 -183 0
-344 -4 -358 -8z"/>
</g>
</svg>
